<svg width="100" height="100" viewBox="0 0 100 100" fill="none" xmlns="http://www.w3.org/2000/svg">
<path d="M50 96C50 90.1652 47.6821 84.5695 43.5563 80.4437C39.4305 76.3179 33.8348 74 28 74C22.1652 74 16.5695 76.3178 12.4437 80.4436C8.31785 84.5694 6 90.1652 6 96" stroke="#123762" stroke-width="3" stroke-linecap="round" stroke-linejoin="round"/>
<circle cx="28" cy="62" r="10.5" fill="#00CBFD" stroke="#123762" stroke-width="3"/>
<path d="M94 96C94 90.1652 91.6821 84.5695 87.5563 80.4437C83.4305 76.3179 77.8348 74 72 74C66.1652 74 60.5695 76.3178 56.4437 80.4436C52.3179 84.5694 50 90.1652 50 96" stroke="#123762" stroke-width="3" stroke-linecap="round" stroke-linejoin="round"/>
<circle cx="72" cy="62" r="10.5" fill="#00CBFD" stroke="#123762" stroke-width="3"/>
<path d="M72 50C72 44.1652 69.6821 38.5695 65.5563 34.4437C61.4305 30.3179 55.8348 28 50 28C44.1652 28 38.5695 30.3178 34.4437 34.4436C30.3179 38.5694 28 44.1652 28 50" stroke="#123762" stroke-width="3" stroke-linecap="round" stroke-linejoin="round"/>
<circle cx="50" cy="16" r="10.5" fill="#00CBFD" stroke="#123762" stroke-width="3"/>
</svg>
