<svg width="100" height="100" viewBox="0 0 100 100" fill="none" xmlns="http://www.w3.org/2000/svg">
<path d="M86.0356 28.3125C86.8435 28.496 87.6471 27.9898 87.8306 27.182L90.8204 14.0172C91.0038 13.2094 90.4977 12.4057 89.6898 12.2223C88.882 12.0388 88.0783 12.545 87.8949 13.3528L85.2372 25.0548L73.5352 22.3972C72.7274 22.2137 71.9238 22.7199 71.7403 23.5278C71.5568 24.3356 72.063 25.1393 72.8708 25.3227L86.0356 28.3125ZM6.5033 46.5825C6.44837 47.4091 7.07394 48.1237 7.90054 48.1787C8.72714 48.2336 9.44177 47.608 9.4967 46.7814L6.5033 46.5825ZM87.637 26.0504C82.6852 18.1884 75.3716 12.0958 66.7444 8.64575L65.6305 11.4313C73.6694 14.6461 80.4844 20.3233 85.0986 27.6492L87.637 26.0504ZM66.7444 8.64575C58.1173 5.19567 48.6194 4.5652 39.6119 6.84469L40.3479 9.75301C48.7412 7.62894 57.5915 8.21642 65.6305 11.4313L66.7444 8.64575ZM39.6119 6.84469C30.6044 9.12418 22.5497 14.1966 16.6021 21.3351L18.9069 23.2554C24.449 16.6037 31.9545 11.8771 40.3479 9.75301L39.6119 6.84469ZM16.6021 21.3351C10.6545 28.4735 7.11939 37.3115 6.5033 46.5825L9.4967 46.7814C10.0708 38.1426 13.3649 29.9071 18.9069 23.2554L16.6021 21.3351Z" fill="#123762"/>
<path d="M14.2378 71.3695C13.43 71.186 12.6264 71.6922 12.4429 72.5L9.45308 85.6648C9.26961 86.4726 9.77577 87.2763 10.5836 87.4597C11.3915 87.6432 12.1951 87.137 12.3786 86.3292L15.0362 74.6272L26.7382 77.2848C27.5461 77.4683 28.3497 76.9621 28.5332 76.1542C28.7166 75.3464 28.2105 74.5427 27.4026 74.3593L14.2378 71.3695ZM93.7701 53.0995C93.8251 52.2729 93.1995 51.5583 92.3729 51.5033C91.5463 51.4484 90.8317 52.074 90.7767 52.9006L93.7701 53.0995ZM12.6364 73.6316C17.5883 81.4936 24.9018 87.5862 33.529 91.0363L34.6429 88.2507C26.604 85.0359 19.7891 79.3587 15.1749 72.0328L12.6364 73.6316ZM33.529 91.0363C42.1562 94.4863 51.6541 95.1168 60.6616 92.8373L59.9256 89.929C51.5322 92.0531 42.6819 91.4656 34.6429 88.2507L33.529 91.0363ZM60.6616 92.8373C69.6691 90.5578 77.7238 85.4854 83.6713 78.3469L81.3665 76.4266C75.8244 83.0783 68.3189 87.8049 59.9256 89.929L60.6616 92.8373ZM83.6713 78.3469C89.6189 71.2085 93.1541 62.3705 93.7701 53.0995L90.7767 52.9006C90.2027 61.5395 86.9086 69.7749 81.3665 76.4266L83.6713 78.3469Z" fill="#123762"/>
<path d="M39.4308 68.6809C39.0128 68.424 38.771 67.9618 38.771 67.4711C38.771 66.242 40.2136 65.5207 41.2898 66.1142C44.0822 67.654 47.1999 68.424 50.643 68.424C53.4803 68.424 55.7576 67.752 57.475 66.408C59.1923 65.0266 60.051 63.0666 60.051 60.528C60.051 59.7066 59.9203 58.9413 59.659 58.232C59.435 57.5226 59.1923 56.9253 58.931 56.44C58.6696 55.9546 58.203 55.488 57.531 55.04C56.859 54.5546 56.3176 54.2 55.907 53.976C55.5336 53.7146 54.8616 53.416 53.891 53.08C52.9203 52.744 52.2296 52.52 51.819 52.408C51.4456 52.296 50.699 52.0906 49.579 51.792C48.1976 51.4186 47.0403 51.064 46.107 50.728C45.1736 50.392 44.147 49.9253 43.027 49.328C41.9443 48.6933 41.067 48.0213 40.395 47.312C39.723 46.5653 39.163 45.632 38.715 44.512C38.267 43.392 38.043 42.1226 38.043 40.704C38.043 37.3066 39.163 34.656 41.403 32.752C43.6803 30.8106 46.6856 29.84 50.419 29.84C54.5526 29.84 58.1206 30.7611 61.123 32.6033C61.5444 32.8618 61.787 33.328 61.787 33.8224C61.787 35.0369 60.3931 35.7648 59.3169 35.2019C56.5515 33.7553 53.5668 33.032 50.363 33.032C47.6376 33.032 45.4723 33.6853 43.867 34.992C42.2616 36.2613 41.459 38.0906 41.459 40.48C41.459 41.7866 41.683 42.9066 42.131 43.84C42.579 44.7733 43.3816 45.5573 44.539 46.192C45.6963 46.8266 46.6296 47.2746 47.339 47.536C48.0856 47.7973 49.3176 48.1706 51.035 48.656C51.2963 48.7306 51.483 48.7866 51.595 48.824C53.0136 49.2346 54.171 49.608 55.067 49.944C56.0003 50.2426 57.0456 50.7093 58.203 51.344C59.3976 51.9786 60.331 52.6693 61.003 53.416C61.675 54.1626 62.2536 55.1333 62.739 56.328C63.2243 57.5226 63.467 58.8666 63.467 60.36C63.467 63.8693 62.291 66.632 59.939 68.648C57.6243 70.6266 54.5256 71.616 50.643 71.616C46.3512 71.616 42.6138 70.6376 39.4308 68.6809Z" fill="#00CBFD"/>
<path d="M50.9063 31L50.9062 25" stroke="#00CBFD" stroke-width="3" stroke-linecap="round"/>
<path d="M51.9062 76L51.9062 70" stroke="#00CBFD" stroke-width="3" stroke-linecap="round"/>
</svg>
