<svg width="24" height="24" viewBox="0 0 24 24" fill="none" xmlns="http://www.w3.org/2000/svg">
<path fill-rule="evenodd" clip-rule="evenodd" d="M2 4C2 2.89543 2.89543 2 4 2H20C21.1046 2 22 2.89543 22 4V8C22 9.10457 21.1046 10 20 10H4C2.89543 10 2 9.10457 2 8V4Z" stroke="url(#paint0_linear_978_4035)" stroke-width="2" stroke-linecap="round" stroke-linejoin="round"/>
<path fill-rule="evenodd" clip-rule="evenodd" d="M2 16C2 14.8954 2.89543 14 4 14H20C21.1046 14 22 14.8954 22 16V20C22 21.1046 21.1046 22 20 22H4C2.89543 22 2 21.1046 2 20V16Z" stroke="url(#paint1_linear_978_4035)" stroke-width="2" stroke-linecap="round" stroke-linejoin="round"/>
<circle cx="6" cy="6" r="1" fill="url(#paint2_linear_978_4035)"/>
<circle cx="6" cy="18" r="1" fill="url(#paint3_linear_978_4035)"/>
<defs>
<linearGradient id="paint0_linear_978_4035" x1="2" y1="6" x2="22" y2="6" gradientUnits="userSpaceOnUse">
<stop stop-color="#00C4FB"/>
<stop offset="1" stop-color="#0072D5"/>
</linearGradient>
<linearGradient id="paint1_linear_978_4035" x1="2" y1="18" x2="22" y2="18" gradientUnits="userSpaceOnUse">
<stop stop-color="#00C4FB"/>
<stop offset="1" stop-color="#0072D5"/>
</linearGradient>
<linearGradient id="paint2_linear_978_4035" x1="5" y1="6" x2="7" y2="6" gradientUnits="userSpaceOnUse">
<stop stop-color="#00C4FB"/>
<stop offset="1" stop-color="#0072D5"/>
</linearGradient>
<linearGradient id="paint3_linear_978_4035" x1="5" y1="18" x2="7" y2="18" gradientUnits="userSpaceOnUse">
<stop stop-color="#00C4FB"/>
<stop offset="1" stop-color="#0072D5"/>
</linearGradient>
</defs>
</svg>
